<?xml version="1.0" standalone="no"?>
<!DOCTYPE svg PUBLIC "-//W3C//DTD SVG 20010904//EN"
 "http://www.w3.org/TR/2001/REC-SVG-20010904/DTD/svg10.dtd">
<svg version="1.0" xmlns="http://www.w3.org/2000/svg"
 width="2000.000000pt" height="2000.000000pt" viewBox="0 0 2000.000000 2000.000000"
 preserveAspectRatio="xMidYMid meet">
<metadata>
Created by potrace 1.11, written by Peter Selinger 2001-2013
</metadata>
<g transform="translate(0.000000,2000.000000) scale(0.100000,-0.100000)"
fill="#000000" stroke="none">
<path d="M9609 18386 c-2 -2 -60 -7 -129 -11 -69 -4 -141 -9 -160 -10 -19 -2
-66 -6 -105 -9 -68 -6 -144 -14 -195 -21 -14 -2 -46 -6 -72 -9 -136 -17 -185
-23 -213 -29 -11 -3 -45 -8 -75 -12 -59 -8 -69 -10 -145 -25 -27 -5 -63 -12
-80 -15 -56 -9 -240 -46 -300 -61 -33 -8 -71 -17 -85 -20 -265 -54 -806 -226
-1172 -373 -122 -48 -154 -62 -276 -117 -29 -13 -54 -24 -56 -24 -6 0 -300
-139 -316 -150 -8 -5 -46 -25 -85 -45 -311 -156 -705 -397 -1030 -630 -91 -65
-230 -169 -295 -222 -8 -7 -31 -25 -51 -40 -74 -58 -327 -272 -369 -313 -9 -8
-45 -41 -81 -74 -157 -143 -428 -417 -559 -565 -36 -40 -70 -78 -76 -85 -48
-52 -208 -246 -314 -384 -72 -92 -137 -176 -146 -187 -125 -162 -411 -609
-574 -900 -160 -284 -355 -707 -497 -1075 -45 -116 -199 -570 -207 -612 -3
-13 -10 -39 -16 -58 -6 -19 -13 -43 -16 -52 -2 -10 -6 -26 -9 -35 -34 -129
-66 -254 -70 -278 -3 -16 -10 -46 -15 -65 -5 -19 -11 -46 -14 -60 -2 -14 -10
-47 -16 -75 -16 -69 -48 -234 -55 -280 -1 -11 -7 -47 -13 -80 -6 -33 -14 -82
-17 -110 -4 -27 -8 -57 -10 -65 -2 -8 -7 -42 -10 -75 -4 -33 -8 -67 -10 -75
-2 -8 -7 -44 -10 -80 -4 -36 -8 -76 -10 -90 -2 -14 -7 -61 -10 -105 -4 -44 -9
-92 -10 -108 -27 -226 -27 -1120 0 -1352 2 -16 6 -66 10 -110 4 -44 8 -91 10
-105 2 -14 7 -54 10 -90 4 -36 8 -72 10 -80 1 -8 6 -44 11 -80 4 -36 8 -67 9
-70 1 -3 5 -30 9 -60 4 -30 16 -102 26 -160 11 -58 22 -121 25 -140 3 -19 8
-42 10 -50 2 -8 7 -31 10 -50 3 -19 17 -84 31 -145 13 -60 26 -119 28 -130 6
-29 74 -294 86 -329 16 -51 81 -270 85 -286 7 -33 138 -398 184 -512 189 -475
452 -1000 676 -1348 12 -19 39 -62 60 -95 79 -124 112 -173 193 -288 78 -111
289 -396 301 -407 3 -3 33 -39 66 -80 32 -41 61 -77 64 -80 4 -3 33 -36 66
-75 33 -38 62 -72 65 -75 3 -3 39 -43 80 -90 252 -286 629 -645 945 -900 44
-36 82 -68 85 -71 3 -3 32 -25 65 -50 33 -24 62 -46 65 -50 9 -10 192 -143
295 -214 55 -38 121 -84 147 -102 26 -18 52 -33 57 -33 5 0 11 -3 13 -8 4 -10
166 -112 177 -112 5 0 11 -3 13 -8 3 -8 225 -138 378 -221 193 -106 412 -212
715 -346 288 -127 930 -346 1175 -400 8 -1 35 -8 60 -15 47 -13 69 -18 110
-26 14 -3 41 -9 60 -14 55 -14 263 -57 390 -80 63 -11 124 -22 135 -24 11 -2
45 -7 75 -11 30 -4 62 -9 70 -10 8 -2 38 -6 65 -9 28 -4 61 -8 75 -11 14 -2
52 -7 85 -10 33 -3 76 -8 95 -10 19 -2 67 -7 105 -10 39 -4 86 -8 105 -10 149
-14 339 -20 675 -20 389 0 533 5 790 29 128 12 170 17 195 21 14 2 48 7 75 10
77 9 128 15 155 20 14 2 45 7 70 10 81 10 322 55 489 91 90 20 171 37 180 39
9 2 45 11 81 20 36 9 72 19 80 20 8 2 65 18 125 35 61 17 117 32 126 35 9 2
77 23 150 46 74 23 139 44 144 45 31 8 280 99 400 146 504 199 1057 479 1439
730 49 32 90 58 92 58 14 0 415 286 544 389 54 42 112 87 130 101 34 26 54 43
184 154 236 200 512 467 738 711 370 401 713 859 1007 1343 61 101 111 184
111 186 0 1 30 56 66 122 36 65 79 146 95 179 16 33 34 67 39 75 34 54 211
447 292 650 192 480 377 1106 443 1500 3 19 8 42 10 50 2 8 6 31 9 50 3 19 8
46 11 60 12 61 15 78 20 120 3 25 10 68 15 95 5 28 11 71 15 98 8 73 16 140
20 167 7 52 15 127 21 195 3 39 7 90 9 115 16 198 20 314 20 660 0 343 -7 580
-20 685 -2 17 -6 68 -10 115 -3 47 -8 92 -10 100 -2 8 -7 49 -10 90 -3 41 -8
82 -10 90 -2 8 -9 51 -14 95 -9 69 -26 179 -47 305 -3 19 -16 89 -29 155 -14
66 -27 131 -29 145 -82 425 -333 1196 -525 1613 -17 37 -31 70 -31 73 0 15
-233 476 -317 626 -117 210 -325 550 -376 613 -4 6 -29 42 -55 80 -93 136
-337 463 -362 485 -3 3 -25 30 -50 60 -278 343 -662 736 -1010 1036 -143 123
-292 243 -435 351 -132 99 -363 263 -371 263 -3 0 -10 5 -17 11 -21 18 -177
118 -302 194 -346 209 -635 358 -1055 543 -460 203 -1241 444 -1680 517 -19 3
-66 12 -105 20 -74 15 -97 19 -209 35 -38 6 -78 12 -90 15 -12 2 -43 7 -71 10
-27 3 -63 8 -80 10 -40 6 -105 13 -185 20 -36 4 -79 8 -95 10 -17 2 -73 7
-125 10 -52 4 -111 9 -130 12 -41 5 -916 14 -921 9z"/>
</g>
</svg>
